<?xml version="1.0" encoding="UTF-8" standalone="no"?>
<!-- Created with Inkscape (http://www.inkscape.org/) -->

<svg
   xmlns:dc="http://purl.org/dc/elements/1.1/"
   xmlns:cc="http://creativecommons.org/ns#"
   xmlns:rdf="http://www.w3.org/1999/02/22-rdf-syntax-ns#"
   xmlns:svg="http://www.w3.org/2000/svg"
   xmlns="http://www.w3.org/2000/svg"
   xmlns:sodipodi="http://sodipodi.sourceforge.net/DTD/sodipodi-0.dtd"
   xmlns:inkscape="http://www.inkscape.org/namespaces/inkscape"
   width="64"
   height="64"
   viewBox="0 0 16.933333 16.933334"
   version="1.1"
   id="svg327"
   inkscape:version="0.92.4 (5da689c313, 2019-01-14)"
   sodipodi:docname="android.svg">
  <defs
     id="defs321" />
  <sodipodi:namedview
     id="base"
     pagecolor="#ffffff"
     bordercolor="#666666"
     borderopacity="1.0"
     inkscape:pageopacity="0.0"
     inkscape:pageshadow="2"
     inkscape:zoom="1.4"
     inkscape:cx="59.577664"
     inkscape:cy="-80.664142"
     inkscape:document-units="mm"
     inkscape:current-layer="layer1"
     showgrid="false"
     units="px"
     inkscape:window-width="1920"
     inkscape:window-height="1017"
     inkscape:window-x="-8"
     inkscape:window-y="768"
     inkscape:window-maximized="1" />
  <metadata
     id="metadata324">
    <rdf:RDF>
      <cc:Work
         rdf:about="">
        <dc:format>image/svg+xml</dc:format>
        <dc:type
           rdf:resource="http://purl.org/dc/dcmitype/StillImage" />
        <dc:title></dc:title>
      </cc:Work>
    </rdf:RDF>
  </metadata>
  <g
     inkscape:label="Vrstva 1"
     inkscape:groupmode="layer"
     id="layer1"
     transform="translate(0,-280.06665)">
    <g
       id="g730"
       transform="matrix(0.05648933,0,0,0.05648933,1.2565239,280.01818)">
      <path
         id="path720"
         d="m 78.389016,0.85847624 c -1.404357,0.0134013 -2.862095,0.35219756 -4.19018,1.08836076 -4.217521,2.3378127 -5.764357,7.7576505 -3.42833,11.971952 l 9.523137,17.196069 C 57.350183,45.31096 42.146676,69.558336 42.146676,97.23264 c 0,0.116171 -3.22e-4,0.29068 0,0.462553 1.13e-4,0.06065 -5.66e-4,0.09522 0,0.163247 3.5e-5,0.09044 0,0.222514 0,0.244884 v 4.271806 C 37.7402,97.305162 31.262734,94.103607 24.025506,94.103607 10.766574,94.103607 0,104.87019 0,118.12912 v 74.00838 c 0,13.25894 10.766574,24.02551 24.025506,24.02551 7.237228,0 13.714694,-3.20155 18.12117,-8.27152 v 10.36662 c 0,13.97649 11.436681,25.41317 25.413172,25.41317 h 6.448524 v 32.92285 c 0,13.259 10.766583,24.02552 24.025514,24.02552 13.258934,0 24.025514,-10.76652 24.025514,-24.02552 v -32.92285 h 11.15568 v 32.92285 c 0,13.259 10.76658,24.02552 24.02552,24.02552 13.25892,0 24.02552,-10.76652 24.02552,-24.02552 v -32.92285 h 6.44852 c 13.97649,0 25.41317,-11.43668 25.41317,-25.41317 v -10.36662 c 4.40649,5.06997 10.88394,8.27152 18.12117,8.27152 13.25894,0 24.02552,-10.76657 24.02552,-24.02551 v -74.00838 c 0,-13.25893 -10.76658,-24.025513 -24.02552,-24.025513 -7.23723,0 -13.71468,3.201555 -18.12117,8.271523 v -4.190179 -0.08161 c 5.6e-4,-0.130964 1.4e-4,-0.261215 0,-0.244876 0.002,-0.26081 0,-0.468626 0,-0.625808 0,-27.669459 -15.23741,-51.893442 -38.17418,-66.090575 l 9.55035,-17.223319 c 2.33603,-4.2143013 0.7892,-9.6341391 -3.42833,-11.9719517 -1.32809,-0.7361632 -2.78582,-1.07494231 -4.19017,-1.08836083 -3.1145,-0.0298094 -6.17144,1.61158013 -7.78178,4.51669043 l -9.98569,18.0395551 c -9.7641,-3.603191 -20.38794,-5.577844 -31.48077,-5.577844 -11.08151,0 -21.72488,1.954439 -31.480771,5.550629 L 86.170777,5.3751409 C 84.560453,2.470022 81.503506,0.8287098 78.389016,0.85845047 Z"
         inkscape:connector-curvature="0"
         style="fill:#ffffff" />
      <path
         id="path722"
         d="m 24.026073,100.36166 c -9.894373,0 -17.7674541,7.87309 -17.7674541,17.76746 v 74.00838 c 0,9.89438 7.8730811,17.76746 17.7674541,17.76746 9.894371,0 17.767453,-7.87308 17.767453,-17.76746 v -74.00838 c 0,-9.89437 -7.873082,-17.76746 -17.767453,-17.76746 z m 207.223477,0 c -9.89437,0 -17.76746,7.87309 -17.76746,17.76746 v 74.00838 c 0,9.89438 7.87309,17.76746 17.76746,17.76746 9.89437,0 17.76745,-7.87308 17.76745,-17.76746 v -74.00838 c 0,-9.89437 -7.87308,-17.76746 -17.76745,-17.76746 z"
         inkscape:connector-curvature="0"
         style="fill:#a4c639" />
      <path
         id="path724"
         d="m 98.033886,184.81807 c -9.894375,0 -17.767452,7.87309 -17.767452,17.76746 v 74.00843 c 0,9.8944 7.873077,17.76735 17.767452,17.76735 9.894374,0 17.767454,-7.87295 17.767454,-17.76735 v -74.00843 c 0,-9.89437 -7.87308,-17.76746 -17.767454,-17.76746 z m 59.206714,0 c -9.89438,0 -17.76746,7.87309 -17.76746,17.76746 v 74.00843 c 0,9.8944 7.87308,17.76735 17.76746,17.76735 9.89437,0 17.76744,-7.87295 17.76744,-17.76735 v -74.00843 c 0,-9.89437 -7.87307,-17.76746 -17.76744,-17.76746 z"
         inkscape:connector-curvature="0"
         style="fill:#a4c639" />
      <path
         id="path726"
         d="m 78.443434,7.1165423 c -0.420011,0.0043 -0.811384,0.1126572 -1.197194,0.3265031 -1.266954,0.7022904 -1.683587,2.1581745 -0.979523,3.4283386 l 12.516119,22.61065 C 64.702394,46.011756 48.437336,69.823253 48.404738,97.151012 H 206.86975 C 206.83719,69.823253 190.5721,46.011756 166.49164,33.482034 l 12.51614,-22.61065 c 0.70406,-1.2701641 0.28742,-2.7260482 -0.97953,-3.4283386 -0.38581,-0.2138459 -0.77718,-0.3224999 -1.1972,-0.3265031 -0.89913,-0.00868 -1.7514,0.4405777 -2.23114,1.3060295 L 161.92053,31.278106 c -10.37223,-4.600784 -22.0063,-7.183163 -34.28329,-7.183163 -12.27699,0 -23.91107,2.582379 -34.283292,7.183163 L 80.674569,8.4225718 C 80.194838,7.55712 79.342558,7.1079173 78.443434,7.1165423 Z M 48.404738,103.40907 v 114.84904 c 0,10.61193 8.543179,19.1551 19.15511,19.1551 H 187.71464 c 10.61194,0 19.15511,-8.54317 19.15511,-19.1551 V 103.40907 Z"
         inkscape:connector-curvature="0"
         style="fill:#a4c639" />
      <path
         id="path728"
         d="m 91.068177,54.922695 c -3.61746,0 -6.61178,2.994316 -6.61178,6.611785 0,3.61746 2.99432,6.611775 6.61178,6.611775 3.617461,0 6.611776,-2.994315 6.611776,-6.611775 0,-3.617469 -2.994315,-6.611785 -6.611776,-6.611785 z m 73.137693,0 c -3.61746,0 -6.61178,2.994316 -6.61178,6.611785 0,3.61746 2.99432,6.611775 6.61178,6.611775 3.61746,0 6.61178,-2.994315 6.61178,-6.611775 0,-3.617469 -2.99432,-6.611785 -6.61178,-6.611785 z"
         inkscape:connector-curvature="0"
         style="fill:#ffffff" />
    </g>
  </g>
  <style
     id="style527"
     type="text/css">
	.st0{fill:#F05133;}
	.st1{fill:#FFFFFF;}
</style>
  <style
     id="style610"
     type="text/css">
	.Drop_x0020_Shadow{fill:none;}
	.Round_x0020_Corners_x0020_2_x0020_pt{fill:#FFFFFF;stroke:#1B1B1F;stroke-miterlimit:10;}
	.Live_x0020_Reflect_x0020_X{fill:none;}
	.Bevel_x0020_Soft{fill:url(#SVGID_1_);}
	.Dusk{fill:#FFFFFF;}
	.Foliage_GS{fill:#FFDC00;}
	.Pompadour_GS{fill-rule:evenodd;clip-rule:evenodd;fill:#58AEE2;}
	.st0{fill:none;}
	.st1{fill:#FFFFFF;}
	.st2{fill:#283037;}
	.st3{fill:#4DA825;}
</style>
</svg>
