<?xml version="1.0" encoding="UTF-8" standalone="no"?>
<!-- Created with Inkscape (http://www.inkscape.org/) -->

<svg
   xmlns:dc="http://purl.org/dc/elements/1.1/"
   xmlns:cc="http://creativecommons.org/ns#"
   xmlns:rdf="http://www.w3.org/1999/02/22-rdf-syntax-ns#"
   xmlns:svg="http://www.w3.org/2000/svg"
   xmlns="http://www.w3.org/2000/svg"
   xmlns:sodipodi="http://sodipodi.sourceforge.net/DTD/sodipodi-0.dtd"
   xmlns:inkscape="http://www.inkscape.org/namespaces/inkscape"
   width="64"
   height="64"
   viewBox="0 0 16.933333 16.933334"
   version="1.1"
   id="svg327"
   inkscape:version="0.92.4 (5da689c313, 2019-01-14)"
   sodipodi:docname="git.svg">
  <defs
     id="defs321" />
  <sodipodi:namedview
     id="base"
     pagecolor="#ffffff"
     bordercolor="#666666"
     borderopacity="1.0"
     inkscape:pageopacity="0.0"
     inkscape:pageshadow="2"
     inkscape:zoom="1.4"
     inkscape:cx="59.577664"
     inkscape:cy="-80.664142"
     inkscape:document-units="mm"
     inkscape:current-layer="layer1"
     showgrid="false"
     units="px"
     inkscape:window-width="1920"
     inkscape:window-height="1017"
     inkscape:window-x="-8"
     inkscape:window-y="768"
     inkscape:window-maximized="1" />
  <metadata
     id="metadata324">
    <rdf:RDF>
      <cc:Work
         rdf:about="">
        <dc:format>image/svg+xml</dc:format>
        <dc:type
           rdf:resource="http://purl.org/dc/dcmitype/StillImage" />
        <dc:title></dc:title>
      </cc:Work>
    </rdf:RDF>
  </metadata>
  <g
     inkscape:label="Vrstva 1"
     inkscape:groupmode="layer"
     id="layer1"
     transform="translate(0,-280.06665)">
    <g
       id="g546"
       transform="matrix(0.04398268,0,0,0.04398268,18.252813,280.59444)">
      <circle
         id="circle529"
         r="192.5"
         cy="180.5"
         cx="-222.5"
         class="st0"
         style="fill:#f05133" />
      <g
         id="g533">
	<path
   id="path531"
   d="M -107,169.8 -211.8,65 c -6,-6 -15.8,-6 -21.9,0 l -21.8,21.8 27.6,27.6 c 6.4,-2.2 13.8,-0.7 18.9,4.4 5.1,5.1 6.6,12.6 4.4,19 l 26.6,26.6 c 6.4,-2.2 13.9,-0.8 19,4.4 7.2,7.2 7.2,18.8 0,26 -7.2,7.2 -18.8,7.2 -26,0 -5.4,-5.4 -6.7,-13.3 -4,-20 L -213.8,150 v 65.3 c 1.7,0.9 3.4,2 4.9,3.5 7.2,7.2 7.2,18.8 0,26 -7.2,7.2 -18.8,7.2 -26,0 -7.2,-7.2 -7.2,-18.8 0,-26 1.8,-1.8 3.8,-3.1 6,-4 v -65.9 c -2.2,-0.9 -4.2,-2.2 -6,-4 -5.4,-5.4 -6.7,-13.4 -4,-20.1 l -27.2,-27.2 -71.9,71.8 c -6,6 -6,15.8 0,21.9 L -233.2,296 c 6,6 15.8,6 21.9,0 L -107,191.7 c 6,-6.1 6,-15.9 0,-21.9 z"
   class="st1"
   inkscape:connector-curvature="0"
   style="fill:#ffffff" />

</g>
    </g>
  </g>
  <style
     id="style527"
     type="text/css">
	.st0{fill:#F05133;}
	.st1{fill:#FFFFFF;}
</style>
</svg>
