<?xml version="1.0" encoding="UTF-8" standalone="no"?>
<svg
   xmlns:dc="http://purl.org/dc/elements/1.1/"
   xmlns:cc="http://creativecommons.org/ns#"
   xmlns:rdf="http://www.w3.org/1999/02/22-rdf-syntax-ns#"
   xmlns:svg="http://www.w3.org/2000/svg"
   xmlns="http://www.w3.org/2000/svg"
   xmlns:sodipodi="http://sodipodi.sourceforge.net/DTD/sodipodi-0.dtd"
   xmlns:inkscape="http://www.inkscape.org/namespaces/inkscape"
   preserveAspectRatio="xMidYMid"
   width="64"
   height="64"
   viewBox="0 0 64 64"
   version="1.1"
   id="svg48"
   sodipodi:docname="r.svg"
   inkscape:version="0.92.4 (5da689c313, 2019-01-14)">
  <metadata
     id="metadata52">
    <rdf:RDF>
      <cc:Work
         rdf:about="">
        <dc:format>image/svg+xml</dc:format>
        <dc:type
           rdf:resource="http://purl.org/dc/dcmitype/StillImage" />
        <dc:title></dc:title>
      </cc:Work>
    </rdf:RDF>
  </metadata>
  <sodipodi:namedview
     pagecolor="#ffffff"
     bordercolor="#666666"
     borderopacity="1"
     objecttolerance="10"
     gridtolerance="10"
     guidetolerance="10"
     inkscape:pageopacity="0"
     inkscape:pageshadow="2"
     inkscape:window-width="1080"
     inkscape:window-height="1857"
     id="namedview50"
     showgrid="false"
     inkscape:zoom="3.0231729"
     inkscape:cx="65.358985"
     inkscape:cy="43.029615"
     inkscape:window-x="1912"
     inkscape:window-y="-8"
     inkscape:window-maximized="1"
     inkscape:current-layer="svg48" />
  <defs
     id="defs42">
    <linearGradient
       id="gradientFill-1"
       x1="0.7414425"
       x2="590.86261"
       y1="3.6658268"
       y2="593.78699"
       gradientUnits="userSpaceOnUse"
       spreadMethod="pad"
       gradientTransform="matrix(0.1084523,0,0,0.07263357,-0.08041115,7.057368)">
      <stop
         offset="0"
         stop-color="rgb(203,206,208)"
         stop-opacity="1"
         id="stop32" />
      <stop
         offset="1"
         stop-color="rgb(132,131,139)"
         stop-opacity="1"
         id="stop34" />
    </linearGradient>
    <linearGradient
       id="gradientFill-2"
       x1="301.02603"
       x2="703.0675"
       y1="151.4006"
       y2="553.44208"
       gradientUnits="userSpaceOnUse"
       spreadMethod="pad"
       gradientTransform="matrix(0.08786184,0,0,0.08965528,-0.08041115,7.057368)">
      <stop
         offset="0"
         stop-color="rgb(39,109,195)"
         stop-opacity="1"
         id="stop37" />
      <stop
         offset="1"
         stop-color="rgb(22,92,170)"
         stop-opacity="1"
         id="stop39" />
    </linearGradient>
  </defs>
  <path
     d="M 32,50.186235 C 14.326942,50.186235 0,40.591126 0,28.754977 0,16.918739 14.326942,7.323629 32,7.323629 c 17.673147,0 32,9.59511 32,21.431348 0,11.836149 -14.326853,21.431258 -32,21.431258 z m 4.898158,-34.483692 c -13.433101,0 -24.322777,6.559633 -24.322777,14.651338 0,8.091705 10.889676,14.651338 24.322777,14.651338 13.433011,0 23.346393,-4.484653 23.346393,-14.651338 0,-10.163491 -9.913382,-14.651338 -23.346393,-14.651338 z"
     id="path44"
     inkscape:connector-curvature="0"
     style="fill:url(#gradientFill-1);fill-rule:evenodd;stroke-width:0.08875404" />
  <path
     d="m 48.734306,40.517637 c 0,0 1.936791,0.584446 3.062015,1.153803 0.390429,0.197566 1.065936,0.591812 1.553195,1.109425 0.477319,0.506963 0.710032,1.020672 0.710032,1.020672 l 7.632847,12.869334 -12.33681,0.0055 -5.769012,-10.833495 c 0,0 -1.181317,-2.029716 -1.908212,-2.618244 -0.606368,-0.490898 -0.864908,-0.665655 -1.464442,-0.665655 -0.417321,0 -2.93119,0 -2.93119,0 l 0.0023,14.109584 -10.916746,0.0046 v -36.04193 h 21.922246 c 0,0 9.984829,0.180082 9.984829,9.679693 0,9.49961 -9.541059,10.206713 -9.541059,10.206713 z m -4.74834,-12.068418 -6.608892,-0.0043 -0.0033,6.128466 6.612176,-0.0021 c 0,0 3.062014,-0.0095 3.062014,-3.117486 0,-3.170471 -3.062014,-3.00459 -3.062014,-3.00459 z"
     id="path46"
     inkscape:connector-curvature="0"
     style="fill:url(#gradientFill-2);fill-rule:evenodd;stroke-width:0.08875404" />
</svg>
