<?xml version="1.0" encoding="UTF-8" standalone="no"?>
<!-- Generator: Adobe Illustrator 19.2.1, SVG Export Plug-In . SVG Version: 6.00 Build 0)  -->

<svg
   xmlns:dc="http://purl.org/dc/elements/1.1/"
   xmlns:cc="http://creativecommons.org/ns#"
   xmlns:rdf="http://www.w3.org/1999/02/22-rdf-syntax-ns#"
   xmlns:svg="http://www.w3.org/2000/svg"
   xmlns="http://www.w3.org/2000/svg"
   xmlns:sodipodi="http://sodipodi.sourceforge.net/DTD/sodipodi-0.dtd"
   xmlns:inkscape="http://www.inkscape.org/namespaces/inkscape"
   version="1.1"
   id="layer"
   x="0px"
   y="0px"
   viewBox="0 0 652 652"
   style="enable-background:new 0 0 652 652;"
   xml:space="preserve"
   sodipodi:docname="rstudio2.svg"
   inkscape:version="0.92.4 (5da689c313, 2019-01-14)"><metadata
   id="metadata3789"><rdf:RDF><cc:Work
       rdf:about=""><dc:format>image/svg+xml</dc:format><dc:type
         rdf:resource="http://purl.org/dc/dcmitype/StillImage" /><dc:title></dc:title></cc:Work></rdf:RDF></metadata><defs
   id="defs3787" /><sodipodi:namedview
   pagecolor="#ffffff"
   bordercolor="#666666"
   borderopacity="1"
   objecttolerance="10"
   gridtolerance="10"
   guidetolerance="10"
   inkscape:pageopacity="0"
   inkscape:pageshadow="2"
   inkscape:window-width="1920"
   inkscape:window-height="1017"
   id="namedview3785"
   showgrid="false"
   inkscape:zoom="1.3006135"
   inkscape:cx="326"
   inkscape:cy="326"
   inkscape:window-x="-8"
   inkscape:window-y="768"
   inkscape:window-maximized="1"
   inkscape:current-layer="g3780" />
<style
   type="text/css"
   id="style3752">
	.st0{fill:#75AADB;}
	.st1{fill:#4D4D4D;}
	.st2{fill:#FFFFFF;}
</style>
<g
   id="Blue_Gradient_Letters"
   transform="translate(189.14151,-11.533019)">
	<g
   id="g3780">
		
			<circle
   transform="matrix(0.7071,-0.7071,0.7071,0.7071,-185.5536,193.8951)"
   class="st0"
   cx="141.3"
   cy="320.89999"
   id="ellipse3754"
   r="105.2"
   style="fill:#75aadb" />
		<g
   id="g3768">
			
			
			
			
			
			
		</g>
		<g
   id="g3772">
			<path
   class="st2"
   d="m 177.3,354.5 h 11.4 v 8.9 H 171.3 L 142.4,320.1 H 127 v 34.4 h 15 v 8.9 h -37.9 v -8.9 h 13 v -76.3 l -13,-1.6 v -8.4 c 4.9,1.1 9.2,1.9 14.6,1.9 8.1,0 16.3,-1.9 24.4,-1.9 15.7,0 30.3,7.1 30.3,24.6 0,13.5 -8.1,22 -20.6,25.7 z m -50.3,-43 8.3,0.2 c 20.1,0.3 27.9,-7.4 27.9,-17.8 0,-12.1 -8.7,-16.8 -19.8,-16.8 -5.2,0 -10.6,0.5 -16.3,1.1 v 33.3 z"
   id="path3770"
   inkscape:connector-curvature="0"
   style="fill:#ffffff" />
		</g>
		<g
   id="g3778">
			
			
		</g>
	</g>
</g>
<g
   id="R_Ball">
</g>
</svg>